<svg xmlns="http://www.w3.org/2000/svg" viewBox="0 0 1168.01 247"><defs><style>.cls-1{fill:#79b8d1;}.cls-2{fill:#fff;}</style></defs><title>Asset 1</title><g id="Layer_2" data-name="Layer 2"><g id="Layer_1-2" data-name="Layer 1"><path class="cls-1" d="M123.5,4.57h0A118.93,118.93,0,0,1,242.43,123.5h0A118.93,118.93,0,0,1,123.5,242.43h0A118.93,118.93,0,0,1,4.57,123.5h0A118.93,118.93,0,0,1,123.5,4.57Z"/><path class="cls-1" d="M123.5,247A123.5,123.5,0,1,1,247,123.5,123.64,123.64,0,0,1,123.5,247Zm0-237.85A114.35,114.35,0,1,0,237.85,123.5,114.48,114.48,0,0,0,123.5,9.15Z"/><path class="cls-2" d="M123.5,185.25a4.57,4.57,0,0,1-4.57-4.57V61.75a4.57,4.57,0,1,1,9.14,0V180.68A4.57,4.57,0,0,1,123.5,185.25Z"/><polygon class="cls-2" points="123.5 191.72 74.53 142.74 80.99 136.28 123.5 178.78 166.01 136.28 172.47 142.74 123.5 191.72"/><path class="cls-1" d="M583,14H499V98h84ZM569,84H513V28h56Z"/><path class="cls-1" d="M527,42h28V70H527Z"/><path class="cls-1" d="M499,238.05h84V154H499Zm14-70h56v56H513Z"/><path class="cls-1" d="M527,182h28v28H527Z"/><path class="cls-1" d="M639,14V98h84V14Zm70,70H653V28h56Z"/><path class="cls-1" d="M667,42h28V70H667Z"/><path class="cls-1" d="M527,112H499v28h42V126H527Z"/><path class="cls-1" d="M597,140h28v28H597Z"/><path class="cls-1" d="M541,112h28v14H541Z"/><path class="cls-1" d="M625,182H597v14h14v14h14V182Z"/><path class="cls-1" d="M583,112v14H569v14h28V112Z"/><path class="cls-1" d="M611,70h14V98H611Z"/><path class="cls-1" d="M625,126v14h28V112H611v14Z"/><path class="cls-1" d="M597,98h14v14H597Z"/><path class="cls-1" d="M625,210h28v28H625Z"/><path class="cls-1" d="M597,210h14v28H597Z"/><path class="cls-1" d="M625,168h14v14H625Z"/><path class="cls-1" d="M625,56V28H611V14H597V70h14V56Z"/><path class="cls-1" d="M667,210h14v28H667Z"/><path class="cls-1" d="M667,182h28v14H667Z"/><path class="cls-1" d="M653,196h14v14H653Z"/><path class="cls-1" d="M639,182h14v14H639Z"/><path class="cls-1" d="M695,154v14h14v14h14V154H695Z"/><path class="cls-1" d="M709,196H695v42h28V210H709Z"/><path class="cls-1" d="M639,154v14h42V140H653v14Z"/><path class="cls-1" d="M667,112v14h28v14h28V112H667Z"/><path class="cls-1" d="M1159.56,68.37h-34.72a8.44,8.44,0,0,0-.65-11.2l-46.7-46.7a8.47,8.47,0,0,0-12,0l-46.69,46.7a8.45,8.45,0,0,0-.66,11.2H983.47A8.45,8.45,0,0,0,975,76.82V230.9a8.45,8.45,0,0,0,8.45,8.45h176.09a8.45,8.45,0,0,0,8.45-8.45V76.82A8.45,8.45,0,0,0,1159.56,68.37Zm-88-40,34.74,34.74-7.7,7.7h0l-27,27-27-27h0l-7.7-7.7Zm-79.6,56.87H1035l16.12,16.12H1027.5a8.45,8.45,0,1,0,0,16.89h88a8.45,8.45,0,1,0,0-16.89h-23.62L1108,85.27h43.07V134.4H991.92Zm159.19,137.18H991.92V151.3h159.19Z"/></g></g></svg>