<?xml version="1.0" encoding="utf-8"?>
<!-- Generator: Adobe Illustrator 22.0.0, SVG Export Plug-In . SVG Version: 6.00 Build 0)  -->
<svg version="1.1" id="Capa_1" xmlns="http://www.w3.org/2000/svg" xmlns:xlink="http://www.w3.org/1999/xlink" x="0px" y="0px"
	 viewBox="0 0 205.3 205.3" style="enable-background:new 0 0 205.3 205.3;" xml:space="preserve">
<style type="text/css">
	.st0{fill:#79B8D1;}
</style>
<path class="st0" d="M180.8,53.6H150c1-1.3,1.6-2.9,1.6-4.6c0-2-0.8-3.9-2.2-5.3L108,2.2c-2.9-2.9-7.7-2.9-10.6,0L55.9,43.6
	c-1.4,1.4-2.2,3.3-2.2,5.3c0,1.7,0.6,3.3,1.6,4.6H24.5c-4.1,0-7.5,3.4-7.5,7.5v58.6v78.1c0,4.1,3.4,7.5,7.5,7.5h156.3
	c4.1,0,7.5-3.4,7.5-7.5v-78.1V61.1C188.3,56.9,185,53.6,180.8,53.6z M102.7,18.1l30.8,30.8l-6.8,6.8c0,0,0,0,0,0l-24,24l-24-24
	c0,0,0,0,0,0l-6.8-6.8L102.7,18.1z M32,68.6h38.2l14.3,14.3h-21c-4.1,0-7.5,3.4-7.5,7.5s3.4,7.5,7.5,7.5h78.1c4.1,0,7.5-3.4,7.5-7.5
	s-3.4-7.5-7.5-7.5h-21l14.3-14.3h38.2v43.6H32V68.6z M173.3,190.3H32v-63.1h141.3V190.3z"/>
</svg>
