<?xml version="1.0" encoding="utf-8"?>
<!-- Generator: Adobe Illustrator 22.0.0, SVG Export Plug-In . SVG Version: 6.00 Build 0)  -->
<svg version="1.1" id="Layer_1" xmlns="http://www.w3.org/2000/svg" xmlns:xlink="http://www.w3.org/1999/xlink" x="0px" y="0px"
	 viewBox="0 0 16 16" style="enable-background:new 0 0 16 16;" xml:space="preserve">
<style type="text/css">
	.st0{fill:#79B8D1;}
</style>
<g>
	<path class="st0" d="M6,0H0v6h6V0z M5,5H1V1h4V5z"/>
	<path class="st0" d="M2,2h2v2H2V2z"/>
	<path class="st0" d="M0,16h6v-6H0V16z M1,11h4v4H1V11z"/>
	<path class="st0" d="M2,12h2v2H2V12z"/>
	<path class="st0" d="M10,0v6h6V0H10z M15,5h-4V1h4V5z"/>
	<path class="st0" d="M12,2h2v2h-2V2z"/>
	<path class="st0" d="M2,7H0v2h3V8H2V7z"/>
	<path class="st0" d="M7,9h2v2H7V9z"/>
	<path class="st0" d="M3,7h2v1H3V7z"/>
	<path class="st0" d="M9,12H7v1h1v1h1v-1V12z"/>
	<path class="st0" d="M6,7v1H5v1h2V7H6z"/>
	<path class="st0" d="M8,4h1v2H8V4z"/>
	<path class="st0" d="M9,8v1h2V7H8v1H9z"/>
	<path class="st0" d="M7,6h1v1H7V6z"/>
	<path class="st0" d="M9,14h2v2H9V14z"/>
	<path class="st0" d="M7,14h1v2H7V14z"/>
	<path class="st0" d="M9,11h1v1H9V11z"/>
	<path class="st0" d="M9,3V1H8V0H7v4h1V3H9z"/>
	<path class="st0" d="M12,14h1v2h-1V14z"/>
	<path class="st0" d="M12,12h2v1h-2V12z"/>
	<path class="st0" d="M11,13h1v1h-1V13z"/>
	<path class="st0" d="M10,12h1v1h-1V12z"/>
	<path class="st0" d="M14,10v1h1v1h1v-2h-1H14z"/>
	<path class="st0" d="M15,13h-1v3h2v-2h-1V13z"/>
	<path class="st0" d="M10,10v1h3V9h-2v1H10z"/>
	<path class="st0" d="M12,7v1h2v1h2V7h-2H12z"/>
</g>
</svg>
